<svg xmlns="http://www.w3.org/2000/svg" xmlns:xlink="http://www.w3.org/1999/xlink" width="1080" zoomAndPan="magnify" viewBox="0 0 810 809.999993" height="1080" preserveAspectRatio="xMidYMid meet" version="1.0"><defs><clipPath id="a90e85d428"><path d="M 251.484375 211.710938 L 554 211.710938 L 554 515 L 251.484375 515 Z M 251.484375 211.710938 " clip-rule="nonzero"/></clipPath><clipPath id="54406f08df"><path d="M 497 457 L 637.734375 457 L 637.734375 597.960938 L 497 597.960938 Z M 497 457 " clip-rule="nonzero"/></clipPath><clipPath id="fee35f544c"><path d="M 252 211.710938 L 555.332031 211.710938 L 555.332031 514 L 252 514 Z M 252 211.710938 " clip-rule="nonzero"/></clipPath><clipPath id="6fd1247a60"><path d="M 169.082031 457 L 310 457 L 310 597.960938 L 169.082031 597.960938 Z M 169.082031 457 " clip-rule="nonzero"/></clipPath><clipPath id="2237ef410b"><path d="M 287.546875 245.121094 L 522.296875 245.121094 L 522.296875 479.871094 L 287.546875 479.871094 Z M 287.546875 245.121094 " clip-rule="nonzero"/></clipPath></defs><rect x="-81" width="972" fill="#ffffff" y="-80.999999" height="971.999992" fill-opacity="1"/><rect x="-81" width="972" fill="#ffffff" y="-80.999999" height="971.999992" fill-opacity="1"/><rect x="-81" width="972" fill="#000000" y="-80.999999" height="971.999992" fill-opacity="1"/><g clip-path="url(#a90e85d428)"><path fill="#ffffff" d="M 402.585938 226.503906 C 327.269531 226.503906 265.992188 287.78125 265.992188 363.097656 C 265.992188 438.414062 327.269531 499.691406 402.585938 499.691406 C 477.902344 499.691406 539.171875 438.414062 539.171875 363.097656 C 539.171875 287.78125 477.902344 226.503906 402.585938 226.503906 Z M 402.585938 514.1875 C 319.269531 514.1875 251.484375 446.417969 251.484375 363.097656 C 251.484375 279.78125 319.269531 211.996094 402.585938 211.996094 C 485.90625 211.996094 553.679688 279.78125 553.679688 363.097656 C 553.679688 446.417969 485.90625 514.1875 402.585938 514.1875 " fill-opacity="1" fill-rule="nonzero"/></g><g clip-path="url(#54406f08df)"><path fill="#ffffff" d="M 629.910156 597.675781 C 628.058594 597.675781 626.195312 596.972656 624.777344 595.554688 L 499.164062 469.929688 C 496.328125 467.09375 496.328125 462.507812 499.164062 459.675781 C 501.996094 456.839844 506.585938 456.839844 509.417969 459.675781 L 635.042969 585.289062 C 637.867188 588.121094 637.867188 592.71875 635.042969 595.554688 C 633.625 596.972656 631.761719 597.675781 629.910156 597.675781 " fill-opacity="1" fill-rule="nonzero"/></g><g clip-path="url(#fee35f544c)"><path fill="#ffffff" d="M 540.539062 362.8125 C 540.539062 287.496094 479.261719 226.21875 403.941406 226.21875 C 328.625 226.21875 267.347656 287.496094 267.347656 362.8125 C 267.347656 438.128906 328.625 499.394531 403.941406 499.394531 C 479.261719 499.394531 540.539062 438.128906 540.539062 362.8125 Z M 252.851562 362.8125 C 252.851562 279.492188 320.625 211.710938 403.941406 211.710938 C 487.261719 211.710938 555.046875 279.492188 555.046875 362.8125 C 555.046875 446.128906 487.261719 513.902344 403.941406 513.902344 C 320.625 513.902344 252.851562 446.128906 252.851562 362.8125 " fill-opacity="1" fill-rule="nonzero"/></g><g clip-path="url(#6fd1247a60)"><path fill="#ffffff" d="M 169.367188 590.136719 C 169.367188 588.28125 170.070312 586.417969 171.488281 585 L 297.113281 459.386719 C 299.945312 456.554688 304.53125 456.554688 307.367188 459.386719 C 310.203125 462.222656 310.203125 466.808594 307.367188 469.644531 L 181.753906 595.269531 C 178.917969 598.09375 174.320312 598.09375 171.488281 595.269531 C 170.070312 593.851562 169.367188 591.988281 169.367188 590.136719 " fill-opacity="1" fill-rule="nonzero"/></g><path fill="#ffffff" d="M 394.945312 333.457031 C 395.117188 333.453125 395.292969 333.449219 395.464844 333.449219 C 404.785156 333.449219 412.367188 341.03125 412.367188 350.347656 L 412.367188 350.554688 C 412.320312 353.929688 415.023438 356.703125 418.398438 356.746094 C 418.425781 356.746094 418.449219 356.746094 418.476562 356.746094 C 421.816406 356.746094 424.546875 354.058594 424.589844 350.714844 L 424.589844 350.347656 C 424.589844 334.289062 411.527344 321.222656 395.464844 321.222656 C 395.164062 321.222656 394.859375 321.226562 394.5625 321.238281 C 391.1875 321.34375 388.535156 324.164062 388.644531 327.539062 C 388.75 330.914062 391.601562 333.554688 394.945312 333.457031 " fill-opacity="1" fill-rule="nonzero"/><path fill="#ffffff" d="M 364.113281 321.6875 C 372.601562 313.195312 383.753906 308.953125 394.90625 308.953125 C 406.058594 308.953125 417.210938 313.195312 425.703125 321.6875 C 442.683594 338.664062 442.683594 366.296875 425.703125 383.277344 C 408.722656 400.257812 381.089844 400.257812 364.113281 383.277344 C 347.132812 366.296875 347.132812 338.664062 364.113281 321.6875 Z M 394.90625 408.230469 C 407.269531 408.230469 419.628906 404.148438 429.78125 396 L 460.277344 426.496094 C 461.472656 427.691406 463.035156 428.285156 464.601562 428.285156 C 466.164062 428.285156 467.730469 427.691406 468.921875 426.496094 C 471.3125 424.109375 471.3125 420.242188 468.921875 417.851562 L 438.429688 387.359375 C 455.988281 365.476562 454.632812 333.328125 434.347656 313.042969 C 412.597656 291.292969 377.214844 291.292969 355.464844 313.042969 C 333.71875 334.789062 333.71875 370.175781 355.464844 391.921875 C 366.339844 402.792969 380.625 408.230469 394.90625 408.230469 " fill-opacity="1" fill-rule="nonzero"/><g clip-path="url(#2237ef410b)"><path fill="#ffffff" d="M 404.921875 256.445312 C 463.398438 256.445312 510.972656 304.019531 510.972656 362.496094 C 510.972656 420.972656 463.398438 468.546875 404.921875 468.546875 C 346.445312 468.546875 298.875 420.972656 298.875 362.496094 C 298.875 304.019531 346.445312 256.445312 404.921875 256.445312 Z M 404.921875 479.871094 C 469.644531 479.871094 522.296875 427.21875 522.296875 362.496094 C 522.296875 297.773438 469.644531 245.121094 404.921875 245.121094 C 340.203125 245.121094 287.546875 297.773438 287.546875 362.496094 C 287.546875 427.21875 340.203125 479.871094 404.921875 479.871094 " fill-opacity="1" fill-rule="nonzero"/></g></svg>